<?xml version="1.0" encoding="UTF-8"?>
<svg version="1.1" xmlns="http://www.w3.org/2000/svg" width="1024" height="1024">
<path d="M0 0 C1.51908536 -0.0054318 3.03816544 -0.01256036 4.55723572 -0.02124023 C8.65243418 -0.03935261 12.74722598 -0.03245617 16.84243083 -0.01972389 C21.14761422 -0.00953121 25.45276493 -0.01900702 29.75794983 -0.02526855 C36.98615712 -0.03252762 44.21420046 -0.023004 51.44238281 -0.00390625 C59.77277336 0.01785093 68.10277206 0.01081257 76.43315309 -0.01121187 C83.61230547 -0.02942558 90.79134059 -0.0318949 97.97050864 -0.0214572 C102.24648135 -0.01525388 106.52227055 -0.01429855 110.79823112 -0.02760315 C114.82122107 -0.03924817 118.84371118 -0.03098016 122.86664772 -0.00802612 C124.33387298 -0.00278444 125.80114108 -0.00417388 127.26834869 -0.01307678 C142.35508526 -0.09610732 154.1632367 3.42504427 165.30883789 13.76757812 C178.2031643 27.43795195 179.77064442 44.73851489 179.78930664 62.63085938 C179.79263504 63.76226852 179.79596344 64.89367767 179.7993927 66.05937195 C179.8044284 68.44021196 179.80680207 70.82105896 179.80664062 73.2019043 C179.80882525 76.80920242 179.82701225 80.41619338 179.84594727 84.0234375 C179.84888241 86.35091043 179.8508664 88.67838479 179.85180664 91.00585938 C179.85899216 92.06670242 179.86617767 93.12754547 179.87358093 94.22053528 C179.80563422 116.92018475 179.80563422 116.92018475 172.62133789 124.51757812 C166.49111052 129.29484515 161.29399261 130.71286439 153.55883789 130.76757812 C152.82600586 130.78820312 152.09317383 130.80882812 151.33813477 130.83007812 C149.21118164 130.84570312 149.21118164 130.84570312 145.62133789 130.51757812 C143.83228104 127.83399285 143.19198069 126.27660173 142.37133789 123.26757812 C140.22019753 116.68573074 136.65843486 112.34411454 130.49633789 109.14257812 C124.19566338 106.23262805 117.72957895 105.34118269 110.98852539 107.27148438 C102.65333679 110.44383227 98.60868947 113.83376604 94.73461914 121.88476562 C93.54325136 124.70224592 92.58868232 127.61554484 91.62133789 130.51757812 C72.81133789 130.51757812 54.00133789 130.51757812 34.62133789 130.51757812 C33.30133789 126.88757813 31.98133789 123.25757813 30.62133789 119.51757812 C26.38296251 112.67838148 22.3665498 109.20601318 14.64086914 106.93554688 C6.94517885 105.3428218 -0.70650163 106.55946469 -7.35913086 110.77148438 C-11.89575087 114.32146208 -14.1993781 118.26328745 -16.37866211 123.51757812 C-16.91402732 124.76934829 -17.45055881 126.02062006 -17.98803711 127.27148438 C-18.44694336 128.34269531 -18.90584961 129.41390625 -19.37866211 130.51757812 C-44.61617104 131.42314703 -44.61617104 131.42314703 -52.19116211 124.97460938 C-62.23024542 114.42874542 -60.61686075 98.72643926 -60.62866211 85.20507812 C-60.62933685 84.50536896 -60.6300116 83.80565979 -60.63070679 83.08474731 C-60.5920728 57.70582894 -57.93931873 33.13338761 -39.85913086 13.84179688 C-28.22251933 2.93820025 -15.54431121 -0.09417881 0 0 Z M-27.05834961 31.29882812 C-35.08587436 41.04368404 -38.37866211 56.0352396 -38.37866211 68.51757812 C-26.16866211 68.51757812 -13.95866211 68.51757812 -1.37866211 68.51757812 C4.76118654 44.79050139 4.76118654 44.79050139 7.62133789 20.51757812 C-5.95793809 19.92622256 -17.40547586 21.06229224 -27.05834961 31.29882812 Z M26.62133789 20.51757812 C25.67606885 24.78117982 24.73429945 29.04553693 23.79541016 33.31054688 C23.47730021 34.75345402 23.15832588 36.19617095 22.83837891 37.63867188 C22.371676 39.74361223 21.90836679 41.84927883 21.44555664 43.95507812 C21.16800537 45.21191406 20.8904541 46.46875 20.60449219 47.76367188 C19.17786644 54.66192281 17.91950807 61.59400382 16.62133789 68.51757812 C63.15133789 68.51757812 109.68133789 68.51757812 157.62133789 68.51757812 C158.82459861 46.89766689 158.82459861 46.89766689 150.34399414 28.13476562 C142.26531209 20.55069676 130.42717082 20.21000167 119.93920898 20.29052734 C118.41546158 20.29008926 118.41546158 20.29008926 116.8609314 20.28964233 C113.53878925 20.29102384 110.21687784 20.3065291 106.89477539 20.32226562 C104.57736331 20.32599995 102.25994963 20.32884494 99.9425354 20.33084106 C93.86972628 20.33844446 87.79701419 20.35806447 81.72424316 20.38024902 C75.51677767 20.40077864 69.30929636 20.40985795 63.10180664 20.41992188 C50.94160797 20.44131363 38.78148103 20.47540952 26.62133789 20.51757812 Z M-38.37866211 88.51757812 C-39.11130634 94.46013685 -39.72127921 99.65888534 -38.37866211 105.51757812 C-37.71866211 106.17757812 -37.05866211 106.83757812 -36.37866211 107.51757812 C-32.88144317 107.58974452 -32.88144317 107.58974452 -29.37866211 106.51757812 C-26.26266474 102.63325264 -26.04315178 99.58941911 -26.19116211 94.70507812 C-26.23176758 92.96291016 -26.23176758 92.96291016 -26.27319336 91.18554688 C-26.30799805 90.30511719 -26.34280273 89.4246875 -26.37866211 88.51757812 C-30.33866211 88.51757812 -34.29866211 88.51757812 -38.37866211 88.51757812 Z " fill="#00BAD2" transform="translate(136.378662109375,426.482421875)"/>
<path d="M0 0 C8.518125 0.0825 17.03625 0.165 25.8125 0.25 C28.47932861 0.26579102 31.14615723 0.28158203 33.89379883 0.29785156 C36.0398977 0.32725343 38.18597767 0.35808489 40.33203125 0.390625 C41.96416565 0.39231689 41.96416565 0.39231689 43.62927246 0.39404297 C53.22449293 0.57099295 62.38704033 2.51899125 69.56640625 9.28515625 C74.44916652 15.12584225 76.36879084 21.80509715 76.28125 29.30078125 C75.55136179 36.30568059 72.24951211 41.42350226 67 46 C66.401875 46.598125 65.80375 47.19625 65.1875 47.8125 C64.795625 48.204375 64.40375 48.59625 64 49 C65.03125 49.495 66.0625 49.99 67.125 50.5 C72.52131201 53.58673425 75.63761468 58.27522937 78.375 63.75 C80.27914158 73.65153622 79.22357338 82.16111784 73.90234375 90.77734375 C67.75434963 98.96772236 59.80942654 100.54764336 50 103 C33.5 103 17 103 0 103 C0 69.01 0 35.02 0 0 Z M21 18 C20.67 25.59 20.34 33.18 20 41 C24.39620224 41.0809117 28.79091597 41.14046573 33.1875 41.1875 C35.05631836 41.22520508 35.05631836 41.22520508 36.96289062 41.26367188 C38.16494141 41.27333984 39.36699219 41.28300781 40.60546875 41.29296875 C42.26292114 41.31653442 42.26292114 41.31653442 43.95385742 41.34057617 C47.38534436 40.9569163 49.22780814 40.01611134 52 38 C54.35857464 34.96754689 54.35933916 31.73934186 54.25390625 27.96484375 C53.87642532 25.04372208 52.85858628 23.25685476 51 21 C45.21025558 17.00707281 37.34342865 17.87568739 30.625 17.9375 C27.44875 17.958125 24.2725 17.97875 21 18 Z M20 58 C20 66.58 20 75.16 20 84 C24.54230412 84.10800723 29.08203539 84.18733842 33.625 84.25 C34.91019531 84.28351563 36.19539062 84.31703125 37.51953125 84.3515625 C44.96335663 84.67336283 44.96335663 84.67336283 51.77734375 82.1875 C55.10210294 78.91532927 56.87751204 75.68452771 57.09375 70.9453125 C56.73444838 66.18456602 55.44420976 63.25286477 52 60 C48.10137765 58.05047646 44.93613193 57.76363856 40.60546875 57.8046875 C39.40341797 57.81113281 38.20136719 57.81757813 36.96289062 57.82421875 C35.09407227 57.84935547 35.09407227 57.84935547 33.1875 57.875 C31.92228516 57.88402344 30.65707031 57.89304687 29.35351562 57.90234375 C26.23559595 57.92587522 23.11777378 57.96174511 20 58 Z " fill="#00BAD1" transform="translate(719,450)"/>
<path d="M0 0 C9.25285334 6.25192793 14.918297 14.59052341 18.0234375 25.3671875 C17.58984375 28.09765625 17.58984375 28.09765625 17.0234375 30.3671875 C14.66919075 30.39445677 12.31526788 30.41415469 9.9609375 30.4296875 C7.99447266 30.44708984 7.99447266 30.44708984 5.98828125 30.46484375 C2.20582768 30.37167987 -1.28311926 30.19879296 -4.9765625 29.3671875 C-6.6015625 26.1171875 -6.6015625 26.1171875 -7.9765625 22.3671875 C-12.0346814 17.54131638 -16.17588253 14.7406115 -22.4921875 13.8984375 C-30.7057771 13.82970453 -37.29723189 14.25110448 -43.9765625 19.3671875 C-52.1197253 27.4906332 -52.95454941 38.42668109 -52.9765625 49.3671875 C-52.47478276 59.16280071 -50.12898972 67.14967699 -43.12109375 74.24609375 C-37.0151542 79.30390795 -30.72905929 80.7089331 -22.9140625 80.2421875 C-16.6852273 79.39940575 -11.91036024 77.51004446 -7.6640625 72.8046875 C-5.3825176 68.15709604 -4.1570645 63.39326418 -2.9765625 58.3671875 C-3.60747803 58.40271729 -4.23839355 58.43824707 -4.88842773 58.47485352 C-7.73003804 58.63186159 -10.5720115 58.7808794 -13.4140625 58.9296875 C-14.40728516 58.98576172 -15.40050781 59.04183594 -16.42382812 59.09960938 C-17.36806641 59.14794922 -18.31230469 59.19628906 -19.28515625 59.24609375 C-20.59697876 59.31679077 -20.59697876 59.31679077 -21.93530273 59.38891602 C-23.9765625 59.3671875 -23.9765625 59.3671875 -24.9765625 58.3671875 C-24.9765625 52.7571875 -24.9765625 47.1471875 -24.9765625 41.3671875 C-10.7865625 41.3671875 3.4034375 41.3671875 18.0234375 41.3671875 C18.1059375 45.2653125 18.1884375 49.1634375 18.2734375 53.1796875 C18.30985352 54.38471924 18.34626953 55.58975098 18.38378906 56.83129883 C18.50694393 69.00674653 14.56479151 79.37470563 6.2109375 88.3046875 C-4.60977114 98.4272859 -16.7993185 100.86034022 -31.23046875 100.61328125 C-41.1435819 99.96205484 -48.86691385 97.03083799 -56.9765625 91.3671875 C-58.554375 90.284375 -58.554375 90.284375 -60.1640625 89.1796875 C-70.88501186 78.45873814 -75.92351972 63.77179383 -76.1640625 48.8046875 C-76.11881697 47.32489254 -76.05557917 45.84556385 -75.9765625 44.3671875 C-75.93208984 43.09101563 -75.93208984 43.09101563 -75.88671875 41.7890625 C-75.0340155 27.23071427 -68.75919629 13.31379203 -57.9765625 3.3671875 C-41.36561059 -9.11269289 -17.94966494 -10.95123962 0 0 Z " fill="#00BAD1" transform="translate(420.9765625,454.6328125)"/>
<path d="M0 0 C9.72985603 7.3934609 14.3415585 15.86726436 16.47265625 27.87890625 C11.29860814 29.60358895 5.87929464 28.99630009 0.47265625 28.87890625 C-0.27628906 28.89695312 -1.02523437 28.915 -1.796875 28.93359375 C-3.58984375 28.87890625 -3.58984375 28.87890625 -6.52734375 27.87890625 C-7.81224938 25.97600102 -8.67963642 24.06410069 -9.5703125 21.94921875 C-11.32733663 18.1483094 -14.02396043 15.63592906 -17.73046875 13.76953125 C-24.53932512 11.60134794 -33.83035617 11.5148763 -40.27734375 14.81640625 C-41.34984375 15.49703125 -42.42234375 16.17765625 -43.52734375 16.87890625 C-44.51734375 17.20890625 -45.50734375 17.53890625 -46.52734375 17.87890625 C-47.63371606 19.65178424 -47.63371606 19.65178424 -48.52734375 21.87890625 C-49.14802734 23.12800781 -49.14802734 23.12800781 -49.78125 24.40234375 C-54.83455864 35.41403123 -56.18425556 47.19014704 -52.52734375 58.87890625 C-49.35844905 66.84529168 -46.24768927 73.25427713 -38.203125 76.9453125 C-30.10762239 79.76987473 -22.26539876 79.42031449 -14.52734375 75.87890625 C-13.80804687 75.56308594 -13.08875 75.24726562 -12.34765625 74.921875 C-9.74458017 73.43041295 -9.45721337 71.66851512 -8.52734375 68.87890625 C-8.17671875 68.23953125 -7.82609375 67.60015625 -7.46484375 66.94140625 C-6.25576762 64.28143877 -5.84886532 61.77260042 -5.52734375 58.87890625 C-6.51141686 57.67394716 -6.51141686 57.67394716 -8.38500977 57.76538086 C-9.17576904 57.77061768 -9.96652832 57.77585449 -10.78125 57.78125 C-12.06225586 57.78608398 -12.06225586 57.78608398 -13.36914062 57.79101562 C-14.26697266 57.79939453 -15.16480469 57.80777344 -16.08984375 57.81640625 C-17.44239258 57.82317383 -17.44239258 57.82317383 -18.82226562 57.83007812 C-21.05735689 57.841904 -23.29231812 57.85838405 -25.52734375 57.87890625 C-26.2712387 53.89375475 -26.66343321 50.11960501 -26.65234375 46.06640625 C-26.65492188 45.11121094 -26.6575 44.15601563 -26.66015625 43.171875 C-26.52734375 40.87890625 -26.52734375 40.87890625 -25.52734375 39.87890625 C-22.42483174 39.7901649 -19.34466255 39.7637217 -16.2421875 39.78125 C-15.31136856 39.78266495 -14.38054962 39.7840799 -13.42152405 39.78553772 C-10.43593184 39.79115453 -7.45041346 39.80370985 -4.46484375 39.81640625 C-2.44596462 39.82141909 -0.42708432 39.82598237 1.59179688 39.83007812 C6.55211197 39.84112942 11.51237157 39.8584053 16.47265625 39.87890625 C17.04695101 58.08846765 17.41608777 72.8694148 4.5078125 87.03515625 C-5.94291216 97.1646109 -18.22986895 99.30145155 -32.2265625 99.09375 C-37.65287364 98.9029581 -42.46554566 97.84294778 -47.52734375 95.87890625 C-48.78417969 95.40324219 -48.78417969 95.40324219 -50.06640625 94.91796875 C-61.0563312 90.12050925 -68.20159396 81.45235438 -73.1171875 70.703125 C-78.96812067 55.75246121 -79.48540805 37.61392725 -73.7734375 22.5703125 C-71.19639409 17.00422187 -67.9212665 11.96979037 -64.52734375 6.87890625 C-63.86734375 6.87890625 -63.20734375 6.87890625 -62.52734375 6.87890625 C-62.52734375 6.21890625 -62.52734375 5.55890625 -62.52734375 4.87890625 C-45.00068203 -10.5152339 -19.54956909 -13.47373179 0 0 Z " fill="#00BAD2" transform="translate(607.52734375,456.12109375)"/>
<path d="M0 0 C8.94936312 8.59868274 12.74171647 17.64411363 13.125 30.0625 C12.8407761 41.81042106 9.57575815 51.91452975 1.6875 60.75 C-7.54943352 69.5383774 -17.41987418 72.10236895 -29.96484375 71.9609375 C-40.51369673 71.29624898 -48.95636501 66.59421227 -56.125 58.9375 C-63.85125824 49.45852577 -65.76827765 38.08884696 -65.1875 26.0625 C-64.0268727 15.10248534 -59.49470583 6.42424904 -51.36328125 -1.0390625 C-36.59672817 -12.81749187 -14.253733 -12.17550094 0 0 Z M-40.6875 15.375 C-44.76074739 23.83482151 -45.40853551 33.05179956 -42.59375 42.046875 C-40.39999832 47.07737454 -37.32987501 50.45324484 -32.3125 52.75 C-27.72192787 54.05810994 -24.23350459 53.99976396 -19.625 52.75 C-14.23156392 49.49358576 -11.20045228 45.989184 -8.875 40.125 C-7.3974402 32.29545629 -8.0371618 23.36468055 -12.0703125 16.40234375 C-14.83019489 12.73117944 -17.9088646 10.21787847 -22.3125 8.75 C-29.93583865 8.10395435 -35.44732125 9.58322349 -40.6875 15.375 Z " fill="#00BAD2" transform="translate(512.3125,483.25)"/>
<path d="M0 0 C7.52142971 6.90514869 11.87697269 16.00813506 12.66015625 26.17578125 C12.89470306 39.47596515 10.39388803 50.74254862 1.59765625 61.20703125 C-6.51966009 69.45527204 -16.02663143 72.25466726 -27.40234375 72.55078125 C-38.67081481 72.2552148 -46.19656177 69.130619 -54.25 61.32421875 C-62.42497599 52.61118701 -65.25709231 42.47850877 -65.375 30.6484375 C-64.80844063 17.92157939 -60.87477602 8.09161087 -51.390625 -0.61328125 C-36.45514189 -12.52645639 -14.7549017 -11.50340416 0 0 Z M-41.33984375 17.17578125 C-45.16904133 25.21709617 -45.01039795 34.39413238 -42.3359375 42.7265625 C-40.49737764 47.24725675 -38.65940816 50.05599153 -34.07421875 52.26953125 C-28.42122518 54.2810259 -23.84064912 54.76648313 -18.33984375 52.17578125 C-12.54608835 48.34971637 -10.46210012 44.2567135 -8.65234375 37.67578125 C-7.61794 29.40055127 -8.85896677 21.42871322 -13.08984375 14.17578125 C-17.03218607 10.67147696 -21.16027126 9.03131216 -26.40234375 8.80078125 C-33.04764423 9.43366701 -37.08445851 12.09296 -41.33984375 17.17578125 Z " fill="#00BAD2" transform="translate(697.33984375,482.82421875)"/>
<path d="M0 0 C0 25.08 0 50.16 0 76 C-6.93 76 -13.86 76 -21 76 C-21.33 74.02 -21.66 72.04 -22 70 C-22.474375 70.5775 -22.94875 71.155 -23.4375 71.75 C-29.52965472 77.09920902 -35.91578156 78.70821146 -43.9453125 78.37109375 C-52.80272212 77.29506573 -58.52149882 74.36910731 -64.34375 67.609375 C-68.8679473 60.48163019 -69.45934061 54.0227385 -69.51171875 45.78125 C-69.52966995 44.72393677 -69.54762115 43.66662354 -69.56611633 42.57727051 C-69.61996315 39.21822063 -69.65397927 35.85930784 -69.6875 32.5 C-69.72070809 30.24347012 -69.75520092 27.98695876 -69.79101562 25.73046875 C-69.92068583 17.15268794 -70 8.57893632 -70 0 C-62.74 0 -55.48 0 -48 0 C-48.02320313 3.2278125 -48.04640625 6.455625 -48.0703125 9.78125 C-48.08593326 12.92545174 -48.0980642 16.06964906 -48.10986328 19.21386719 C-48.11988854 21.39031933 -48.13351222 23.56675812 -48.15087891 25.74316406 C-48.17528028 28.88089303 -48.18651813 32.01844308 -48.1953125 35.15625 C-48.20563507 36.12115356 -48.21595764 37.08605713 -48.22659302 38.0802002 C-48.22752091 43.73344321 -47.78340993 48.61423808 -46 54 C-42.84282111 57.00683704 -40.29212279 58.23193856 -36 58.4375 C-32.13546501 58.25241691 -29.35947234 56.91969848 -26 55 C-25.34 55 -24.68 55 -24 55 C-21.87866526 48.90023223 -21.65915363 43.24235078 -21.5859375 36.81640625 C-21.56657135 35.76090073 -21.5472052 34.7053952 -21.5272522 33.61790466 C-21.46775447 30.2661838 -21.42119035 26.91442803 -21.375 23.5625 C-21.3367928 21.28188655 -21.29773949 19.00128711 -21.2578125 16.72070312 C-21.16207758 11.1472603 -21.07694383 5.57373223 -21 0 C-17.87549468 -0.19645093 -14.75038555 -0.38063489 -11.625 -0.5625 C-10.29082031 -0.64661133 -10.29082031 -0.64661133 -8.9296875 -0.73242188 C-7.65351562 -0.80493164 -7.65351562 -0.80493164 -6.3515625 -0.87890625 C-5.56604004 -0.9260376 -4.78051758 -0.97316895 -3.97119141 -1.02172852 C-2 -1 -2 -1 0 0 Z " fill="#00BAD2" transform="translate(874,477)"/>
<path d="M0 0 C4.50333971 4.67013007 7.63869853 9.87071322 7.75 16.4375 C7.729375 17.530625 7.70875 18.62375 7.6875 19.75 C4.9166017 19.77696009 2.1459655 19.79681952 -0.625 19.8125 C-1.41068359 19.82087891 -2.19636719 19.82925781 -3.00585938 19.83789062 C-3.76318359 19.84111328 -4.52050781 19.84433594 -5.30078125 19.84765625 C-6.34552612 19.85551147 -6.34552612 19.85551147 -7.41137695 19.86352539 C-9.3125 19.75 -9.3125 19.75 -12.3125 18.75 C-13.5 15.1875 -13.5 15.1875 -14.3125 11.75 C-20.09580185 9.96243397 -25.375756 9.00527642 -31.3125 10.75 C-33.11271442 12.01867013 -33.11271442 12.01867013 -34.3125 13.75 C-34.56298636 16.87549017 -34.56298636 16.87549017 -34.3125 19.75 C-28.77123692 21.74170857 -23.26852764 23.26749764 -17.50952148 24.4855957 C0.15848236 28.26485642 0.15848236 28.26485642 6.09375 35.453125 C9.72164919 41.2871791 9.50743826 48.12423628 8.6875 54.75 C6.80440231 61.03370567 3.02256725 65.77800881 -2.64453125 69.12890625 C-13.1538568 74.65930095 -25.75280379 75.58308674 -37.29296875 72.5 C-43.95922066 70.02433198 -49.53078104 65.80298804 -53.3125 59.75 C-54.87766964 56.14816552 -56.15895965 52.50239889 -57.3125 48.75 C-52.14449432 45.30466288 -45.22808781 45.80813481 -39.14746094 46.34765625 C-37.3125 46.75 -37.3125 46.75 -35.2578125 48.46875 C-34.0625 50.625 -34.0625 50.625 -33.296875 52.8046875 C-32.43668255 54.95955106 -32.43668255 54.95955106 -30.046875 55.9921875 C-27.17799211 56.7872779 -24.7852976 57.01670111 -21.8125 57 C-20.8946875 57.00515625 -19.976875 57.0103125 -19.03125 57.015625 C-16.1346718 56.73262598 -13.94874347 55.95350245 -11.3125 54.75 C-10.88503396 50.35689276 -10.88503396 50.35689276 -12.98388672 46.64013672 C-15.65597009 44.47120513 -17.46381667 43.92798815 -20.8203125 43.2578125 C-21.89023437 43.02707031 -22.96015625 42.79632812 -24.0625 42.55859375 C-26.28846805 42.10773217 -28.5150216 41.65975041 -30.7421875 41.21484375 C-38.40499805 39.55579027 -46.65583889 37.3130495 -51.77612305 30.92358398 C-55.53855548 24.55143947 -56.18986183 18.57951469 -54.88671875 11.40625 C-52.97695656 4.56391186 -49.23827478 0.03194329 -43.1015625 -3.53515625 C-30.07382737 -9.737781 -11.42017914 -9.51681595 0 0 Z " fill="#01BAD1" transform="translate(937.3125,481.25)"/>
<path d="M0 0 C1.0209375 1.3303125 1.0209375 1.3303125 2.0625 2.6875 C2.9596875 3.8321875 2.9596875 3.8321875 3.875 5 C6.11917159 10.07891465 5.5187088 14.27085162 3.875 19.375 C1.39906942 23.89997658 -1.0462575 26.74187875 -5.6875 29.0625 C-11.36868831 30.15503621 -16.0156437 29.59403599 -21.25 27.125 C-25.80845752 22.99058504 -28.08803542 18.41803954 -28.5625 12.25 C-28.26449885 6.70333342 -25.82005081 2.57005081 -21.9375 -1.3125 C-14.91845309 -5.76458118 -6.44819426 -5.07623804 0 0 Z " fill="#01BAD1" transform="translate(155.9375,544.3125)"/>
<path d="M0 0 C4.70047122 3.81913287 7.18689038 7.28162325 7.8125 13.3125 C8.14805541 18.12423801 7.96595504 21.01449792 5 25 C1.81138277 28.56721294 -1.17844359 31.20420914 -6 32 C-11.60343528 32 -15.31592207 31.33960745 -19.75 27.8125 C-23.39716494 23.25354382 -25.34256012 19.31581152 -24.9375 13.4375 C-24.06579665 7.92608526 -21.58023988 4.49920193 -17.5625 0.6875 C-11.91135481 -3.03398586 -6.15678168 -2.07588856 0 0 Z " fill="#00B9D1" transform="translate(263,542)"/>
<path d="M0 0 C0 25.08 0 50.16 0 76 C-6.6 76 -13.2 76 -20 76 C-19.505 75.01 -19.505 75.01 -19 74 C-13.39 74 -7.78 74 -2 74 C-2 49.91 -2 25.82 -2 1 C-7.94 1 -13.88 1 -20 1 C-19.83886719 2.29550781 -19.67773438 3.59101563 -19.51171875 4.92578125 C-18.81695334 11.90663658 -18.81394465 18.88864391 -18.81469727 25.89624023 C-18.81249436 28.19338076 -18.79422899 30.49005231 -18.77539062 32.78710938 C-18.77245851 34.26822755 -18.7704725 35.74934797 -18.76953125 37.23046875 C-18.76234573 37.9066777 -18.75516022 38.58288666 -18.74775696 39.27958679 C-18.76973212 43.90728339 -19.57683858 47.64731878 -21 52 C-21.89558984 48.95347629 -22.09678466 46.30868572 -22.02172852 43.13964844 C-22.00163223 42.17895447 -21.98153595 41.2182605 -21.96083069 40.22845459 C-21.93379562 39.19915833 -21.90676056 38.16986206 -21.87890625 37.109375 C-21.85529526 36.04962463 -21.83168427 34.98987427 -21.80735779 33.89801025 C-21.73082144 30.51520051 -21.64675359 27.13262548 -21.5625 23.75 C-21.5092693 21.45574063 -21.45652897 19.16146982 -21.40429688 16.8671875 C-21.27521984 11.24464663 -21.1399597 5.62227992 -21 0 C-17.87549468 -0.19645093 -14.75038555 -0.38063489 -11.625 -0.5625 C-10.29082031 -0.64661133 -10.29082031 -0.64661133 -8.9296875 -0.73242188 C-7.65351562 -0.80493164 -7.65351562 -0.80493164 -6.3515625 -0.87890625 C-5.56604004 -0.9260376 -4.78051758 -0.97316895 -3.97119141 -1.02172852 C-2 -1 -2 -1 0 0 Z " fill="#04B2C7" transform="translate(874,477)"/>
<path d="M0 0 C-2.88402095 1.92268063 -4.9741127 2.64589402 -8.25 3.625 C-13.50580714 5.46036122 -16.23896009 7.79162212 -19.5625 12.1953125 C-21 14 -21 14 -24 16 C-23.34329142 10.75532735 -21.35038225 8.91025193 -17.390625 5.6484375 C-12.02723384 1.95015144 -6.55025036 -0.29086369 0 0 Z " fill="#02B3C8" transform="translate(665,475)"/>
<path d="M0 0 C3.23897677 2.58573776 3.79301935 5.22622856 4.6875 9.1875 C4.93886719 10.27417969 5.19023438 11.36085938 5.44921875 12.48046875 C5.63097656 13.31191406 5.81273437 14.14335937 6 15 C-1.08381711 17.36127237 -9.71824591 16.35474495 -17 15 C-17.33 13.68 -17.66 12.36 -18 11 C-17.34 11 -16.68 11 -16 11 C-16 11.99 -16 12.98 -16 14 C-9.4 14 -2.8 14 4 14 C3.34 12.06125 2.68 10.1225 2 8.125 C0 2.25 0 2.25 0 0 Z " fill="#03AEC2" transform="translate(618,469)"/>
<path d="M0 0 C2 2 2 2 2 9 C-4.6 9 -11.2 9 -18 9 C-17.67 8.34 -17.34 7.68 -17 7 C-11.39 7 -5.78 7 0 7 C0 4.69 0 2.38 0 0 Z " fill="#05ACC0" transform="translate(872,544)"/>
<path d="M0 0 C1.68996048 1.68996048 3.3616141 3.38421498 5 5.125 C8.22272133 8.14630125 11.1364735 8.158469 15.375 8.1875 C16.31085937 8.20167969 17.24671875 8.21585938 18.2109375 8.23046875 C21.16118154 7.98668108 23.32364112 7.23112508 26 6 C24.29673936 8.29569913 22.83651936 9.76075546 20.046875 10.55859375 C14.57151089 11.33395125 9.14809101 11.17886009 4 9 C1.64745532 6.20635319 0.66105286 3.56968543 0 0 Z " fill="#02B0C4" transform="translate(900,530)"/>
<path d="M0 0 C0.33 0.66 0.66 1.32 1 2 C-1.62291263 6.10542846 -4.45299863 8.48416327 -8.875 10.3515625 C-16.08897161 11.84846161 -23.72216684 10.68114003 -31 10 C-31 9.67 -31 9.34 -31 9 C-30.33468262 8.96036133 -29.66936523 8.92072266 -28.98388672 8.87988281 C-25.94610165 8.68840132 -22.91088669 8.46946169 -19.875 8.25 C-18.82828125 8.188125 -17.7815625 8.12625 -16.703125 8.0625 C-10.63722501 7.60179874 -6.61512133 7.08551724 -2 3 C-1.34 2.01 -0.68 1.02 0 0 Z " fill="#01AFC3" transform="translate(775,526)"/>
<path d="M0 0 C1.38001811 4.14005432 0.0476461 6.01823984 -1.76171875 9.8359375 C-3.42509278 12.74290663 -5.08060523 14.36229074 -8 16 C-10.8125 16.25 -10.8125 16.25 -13 16 C-10.31158141 13.74754119 -8.35358125 12.11786042 -5 11 C-3.92745649 8.73774618 -3.92745649 8.73774618 -3 6 C-2.01517978 3.99248185 -1.01847486 1.99065541 0 0 Z " fill="#02B4CA" transform="translate(602,519)"/>
<path d="M0 0 C0.80179688 0.05220703 1.60359375 0.10441406 2.4296875 0.15820312 C4.41179103 0.28798371 6.39344499 0.42459735 8.375 0.5625 C8.375 0.8925 8.375 1.2225 8.375 1.5625 C3.095 1.5625 -2.185 1.5625 -7.625 1.5625 C-7.295 4.5325 -6.965 7.5025 -6.625 10.5625 C-9.57683101 7.61066899 -9.71163988 4.60738053 -10.625 0.5625 C-7.2967269 -1.10163655 -3.62766027 -0.25617406 0 0 Z " fill="#01ADC1" transform="translate(890.625,528.4375)"/>
<path d="M0 0 C0.33 0.66 0.66 1.32 1 2 C1.66 2 2.32 2 3 2 C3.99 5.3 4.98 8.6 6 12 C3.04152015 9.04152015 1.65789147 6.78946622 0 3 C0 2.01 0 1.02 0 0 Z " fill="#03B0C6" transform="translate(450,529)"/>
<path d="M0 0 C0.66 0.33 1.32 0.66 2 1 C2.40729228 3.32156597 2.74438677 5.6568787 3 8 C2.01 8.33 1.02 8.66 0 9 C-0.87890625 2.84765625 -0.87890625 2.84765625 -1 1 C-0.67 0.67 -0.34 0.34 0 0 Z " fill="#03B4CA" transform="translate(853,544)"/>
<path d="M0 0 C2 1 2 1 2 1 Z " fill="#06B5C8" transform="translate(211,558)"/>
<path d="" fill="#09B6C9" transform="translate(0,0)"/>
<path d="" fill="#02BBD1" transform="translate(0,0)"/>
<path d="" fill="#06AFC3" transform="translate(0,0)"/>
<path d="" fill="#06B4C9" transform="translate(0,0)"/>
<path d="" fill="#07B5C9" transform="translate(0,0)"/>
<path d="" fill="#0CB1C2" transform="translate(0,0)"/>
<path d="" fill="#05B4CC" transform="translate(0,0)"/>
<path d="" fill="#03BED4" transform="translate(0,0)"/>
<path d="" fill="#05B6CC" transform="translate(0,0)"/>
<path d="" fill="#00BFD3" transform="translate(0,0)"/>
<path d="" fill="#03BCD5" transform="translate(0,0)"/>
<path d="" fill="#00C1D6" transform="translate(0,0)"/>
<path d="" fill="#00C0D6" transform="translate(0,0)"/>
<path d="" fill="#03BBCF" transform="translate(0,0)"/>
<path d="" fill="#03B9CE" transform="translate(0,0)"/>
<path d="" fill="#02BBCE" transform="translate(0,0)"/>
<path d="" fill="#04B9D0" transform="translate(0,0)"/>
<path d="" fill="#01BED5" transform="translate(0,0)"/>
<path d="" fill="#07B4C9" transform="translate(0,0)"/>
<path d="" fill="#09B5C7" transform="translate(0,0)"/>
<path d="" fill="#02BAD0" transform="translate(0,0)"/>
</svg>
